<svg version="1.1" id="Layer_1" xmlns="http://www.w3.org/2000/svg" xmlns:xlink="http://www.w3.org/1999/xlink" x="0px" y="0px"
	 width="100%" viewBox="0 0 192 192" enable-background="new 0 0 192 192" xml:space="preserve">
<path fill="#010101" opacity="1.000000" stroke="none" 
	d="
M85.000000,193.000000 
	C56.684795,193.000000 28.869593,193.000000 1.027194,193.000000 
	C1.027194,129.059830 1.027194,65.119637 1.027194,1.089725 
	C64.898384,1.089725 128.796936,1.089725 192.847748,1.089725 
	C192.847748,64.999725 192.847748,128.999817 192.847748,193.000000 
	C157.119934,193.000000 121.309967,193.000000 85.000000,193.000000 
M85.422203,131.079163 
	C92.624466,139.323013 95.520630,139.779465 104.473824,133.933823 
	C106.422249,132.661682 108.424385,131.366699 110.058472,129.737823 
	C115.076653,124.735634 119.928207,119.566277 124.854988,114.451065 
	C126.030342,115.572792 127.296364,116.895615 128.679504,118.081886 
	C135.845154,124.227608 143.874298,124.159248 152.127899,120.964645 
	C159.832825,117.982414 162.593750,111.611549 162.705444,103.889290 
	C162.732147,102.042206 161.719360,100.180092 161.184677,98.324883 
	C159.543869,99.179039 157.865372,99.968666 156.269760,100.900269 
	C152.459885,103.124687 148.880844,105.876617 144.850204,107.554787 
	C140.557953,109.341904 137.775543,106.078163 135.154068,103.150818 
	C132.489517,100.175377 135.357086,98.257942 136.497971,96.139732 
	C141.252594,87.312042 146.389328,78.517799 144.891251,67.992775 
	C144.471634,65.044777 142.726837,61.286747 140.383224,59.791100 
	C132.028442,54.459221 118.801514,59.769234 116.677513,69.465050 
	C115.315620,75.681961 114.865479,82.423126 115.708344,88.700798 
	C116.446968,94.201973 116.150063,98.757286 112.860268,103.141998 
	C111.763596,104.603668 110.867332,106.213882 109.829605,107.721886 
	C102.676781,118.116257 99.292732,118.228767 91.367043,108.337395 
	C91.184288,108.109306 91.192398,107.728287 91.378807,108.441711 
	C95.626717,100.622551 100.035194,93.716583 103.214973,86.284882 
	C105.918190,79.966995 107.177559,72.953117 101.826050,66.983948 
	C95.923203,60.399803 88.257378,60.549427 80.541191,62.350113 
	C73.541679,63.983555 69.566078,68.823471 67.975128,75.771278 
	C65.887871,84.886497 67.560913,93.647865 70.436897,102.266479 
	C72.927689,109.730804 72.917259,109.984566 66.160583,113.877525 
	C59.167889,117.906448 55.038662,116.066368 54.039429,108.025078 
	C52.932030,99.113358 52.260036,90.227760 54.697281,81.266266 
	C56.121819,76.028374 56.484360,70.426796 56.725235,64.962410 
	C56.977806,59.232704 53.834736,56.430672 48.077084,56.356377 
	C37.414570,56.218788 32.567524,60.341270 31.982901,70.991852 
	C30.946728,89.868637 34.875019,108.111961 40.633854,125.888557 
	C45.108990,139.702576 50.032612,141.173386 62.381268,133.351303 
	C68.057365,129.755875 73.297043,125.471474 78.712509,121.515656 
	C80.801208,124.514938 82.890388,127.514915 85.422203,131.079163 
z"/>
<path fill="#FBFBFB" opacity="1.000000" stroke="none" 
	d="
M85.200882,130.797028 
	C82.890388,127.514915 80.801208,124.514938 78.712509,121.515656 
	C73.297043,125.471474 68.057365,129.755875 62.381268,133.351303 
	C50.032612,141.173386 45.108990,139.702576 40.633854,125.888557 
	C34.875019,108.111961 30.946728,89.868637 31.982901,70.991852 
	C32.567524,60.341270 37.414570,56.218788 48.077084,56.356377 
	C53.834736,56.430672 56.977806,59.232704 56.725235,64.962410 
	C56.484360,70.426796 56.121819,76.028374 54.697281,81.266266 
	C52.260036,90.227760 52.932030,99.113358 54.039429,108.025078 
	C55.038662,116.066368 59.167889,117.906448 66.160583,113.877525 
	C72.917259,109.984566 72.927689,109.730804 70.436897,102.266479 
	C67.560913,93.647865 65.887871,84.886497 67.975128,75.771278 
	C69.566078,68.823471 73.541679,63.983555 80.541191,62.350113 
	C88.257378,60.549427 95.923203,60.399803 101.826050,66.983948 
	C107.177559,72.953117 105.918190,79.966995 103.214973,86.284882 
	C100.035194,93.716583 95.626717,100.622551 91.378807,108.441711 
	C91.192398,107.728287 91.184288,108.109306 91.367043,108.337395 
	C99.292732,118.228767 102.676781,118.116257 109.829605,107.721886 
	C110.867332,106.213882 111.763596,104.603668 112.860268,103.141998 
	C116.150063,98.757286 116.446968,94.201973 115.708344,88.700798 
	C114.865479,82.423126 115.315620,75.681961 116.677513,69.465050 
	C118.801514,59.769234 132.028442,54.459221 140.383224,59.791100 
	C142.726837,61.286747 144.471634,65.044777 144.891251,67.992775 
	C146.389328,78.517799 141.252594,87.312042 136.497971,96.139732 
	C135.357086,98.257942 132.489517,100.175377 135.154068,103.150818 
	C137.775543,106.078163 140.557953,109.341904 144.850204,107.554787 
	C148.880844,105.876617 152.459885,103.124687 156.269760,100.900269 
	C157.865372,99.968666 159.543869,99.179039 161.184662,98.324883 
	C161.719360,100.180092 162.732147,102.042206 162.705444,103.889290 
	C162.593750,111.611549 159.832825,117.982414 152.127899,120.964645 
	C143.874298,124.159248 135.845154,124.227608 128.679504,118.081886 
	C127.296364,116.895615 126.030342,115.572792 124.854988,114.451065 
	C119.928207,119.566277 115.076653,124.735634 110.058472,129.737823 
	C108.424385,131.366699 106.422249,132.661682 104.473824,133.933823 
	C95.520630,139.779465 92.624466,139.323013 85.200882,130.797028 
M84.032265,77.893379 
	C84.032265,82.798607 84.032265,87.703835 84.032265,92.609062 
	C84.911118,92.697815 85.789970,92.786560 86.668823,92.875313 
	C87.879051,88.338722 89.264305,83.836678 90.171570,79.240288 
	C90.387642,78.145607 89.228554,75.932999 88.302292,75.676186 
	C87.175117,75.363663 85.625229,76.575783 84.032265,77.893379 
z"/>
<path fill="#0E0E0E" opacity="1.000000" stroke="none" 
	d="
M84.145233,77.510880 
	C85.625229,76.575783 87.175117,75.363663 88.302292,75.676186 
	C89.228554,75.932999 90.387642,78.145607 90.171570,79.240288 
	C89.264305,83.836678 87.879051,88.338722 86.668823,92.875313 
	C85.789970,92.786560 84.911118,92.697815 84.032265,92.609062 
	C84.032265,87.703835 84.032265,82.798607 84.145233,77.510880 
z"/>
</svg>